{"title":"Sta dixtya tou pepromenou ep 71 DVB-T by Ari Gr Subs","uid":12552903,"size":297327167,"categoryP":"video","categoryS":"tv_shows","magnet":"?xt=urn:btih:15768ed806e493253a46127e94d218a25cb5df54&amp;dn=Sta+dixtya+tou+pepromenou+ep+71+DVB-T+by+Ari+Gr+Subs&amp;tr=udp%3A%2F%2Ftracker.leechers-paradise.org%3A6969&amp;tr=udp%3A%2F%2Fzer0day.ch%3A1337&amp;tr=udp%3A%2F%2Fopen.demonii.com%3A1337&amp;tr=udp%3A%2F%2Ftracker.coppersurfer.tk%3A6969&amp;tr=udp%3A%2F%2Fexodus.desync.com%3A6969","seeders":0,"leechers":0,"uploader":"Aris2015","files":1,"time":1444586783,"description":"Î•Î Î•Î™Î£ÎŸÎ”Î™ÎŸ 71\r\n\r\nÎ— Î•Î»Î¯Ï† Î­ÏÏ‡ÎµÏ„Î±Î¹ Ï€ÏÏŒÏƒÏ‰Ï€Î¿ Î¼Îµ Ï€ÏÏŒÏƒÏ‰Ï€Î¿ Î¼Îµ Î¼Î¹Î± ÏƒÎºÎ»Î·ÏÎ® Î±Î»Î®Î¸ÎµÎ¹Î±, Ï„Î± Ï†Î±Î¹Î½ÏŒÎ¼ÎµÎ½Î± ÏŒÎ¼Ï‰Ï‚ Î±Ï€Î±Ï„Î¿ÏÎ½ ÎºÎ¹ Î±Ï…Ï„ÏŒ Ï€Î¿Ï… Î´ÎµÎ½ Î³Î½Ï‰ÏÎ¯Î¶ÎµÎ¹ ÎµÎ¯Î½Î±Î¹ ÏŒÏ„Î¹ Î¿ ÎšÎ±Ï‡ÏÎ±Î¼Î¬Î½ Î´ÎµÎ½ Î¼Ï€Î¿ÏÎµÎ¯ Î½Î± Ï„Î·Î½ Î¾ÎµÏ‡Î¬ÏƒÎµÎ¹ ÎºÎ±Î¹ ÎµÎ¾Î±ÎºÎ¿Î»Î¿Ï…Î¸ÎµÎ¯ Î½Î± Ï„Î·Î½ Ï€ÎµÏÎ¹Î¼Î­Î½ÎµÎ¹. Î— ÎÏ„ÎµÏ†Î½Î­ ÎµÎ»Ï€Î¯Î¶ÎµÎ¹ ÏŒÏ„Î¹ Î¿ ÎšÎ±Ï‡ÏÎ±Î¼Î¬Î½ Î¸Î± Î­ÏÎ¸ÎµÎ¹ ÏƒÏÎ½Ï„Î¿Î¼Î± ÎºÎ¿Î½Ï„Î¬ Ï„Î·Ï‚, ÎµÎ½ÏŽ Î· Î£Î¿Ï…Î»Ï„Î¬Î½ ÏƒÏ…Î¼Î¼Î±Ï‡ÎµÎ¯ Î¼Îµ Ï„Î¿Î½ ÎœÎ±ÎºÏƒÎ¿ÏÏ„. ÎŸ Î–Î¹Î³Î¹Î¬ ÎµÎ¾Î·Î³ÎµÎ¯ ÏƒÏ„Î¿Î½ ÎšÎ±Ï‡ÏÎ±Î¼Î¬Î½ Ï€Ï‰Ï‚ Ï€ÏÎ­Ï€ÎµÎ¹ Î½Î± Î±Î½Î±Î»Î¬Î²ÎµÎ¹ Ï€ÏÏ‰Ï„Î¿Î²Î¿Ï…Î»Î¯ÎµÏ‚ Î³Î¹Î± Î½Î± ÏƒÏŽÏƒÎµÎ¹ Ï„Î·Î½ Î¿Î¹ÎºÎ¿Î³ÎµÎ½ÎµÎ¹Î±ÎºÎ® ÎµÏ€Î¹Ï‡ÎµÎ¯ÏÎ·ÏƒÎ·.\r\n \nhttp://imgur.com/nLyIDsM\r\n\r\nGeneral\r\nComplete name               : C:Userssta.dixtya.tou.pepromenou.ep.71.DVB-T.By.Ari.mp4\r\nFormat                      : MPEG-4\r\nFormat profile              : Base Media\r\nCodec ID                    : isom\r\nFile size                   : 284 MiB\r\nDuration                    : 50mn 10s\r\nOverall bit rate            : 790 Kbps\r\nWriting application         : Lavf54.59.106\r\n\r\nVideo\r\nID                          : 1\r\nFormat                      : AVC\r\nFormat/Info                 : Advanced Video Codec\r\nFormat profile              :   \r\nFormat settings, CABAC      : Yes\r\nFormat settings, ReFrames   : 4 frames\r\nCodec ID                    : avc1\r\nCodec ID/Info               : Advanced Video Coding\r\nDuration                    : 50mn 10s\r\nBit rate                    : 656 Kbps\r\nWidth                       : 640 pixels\r\nHeight                      : 352 pixels\r\nDisplay aspect ratio        : 16:9\r\nFrame rate mode             : Variable\r\nFrame rate                  : 25.000 fps\r\nMinimum frame rate          : 6.250 fps\r\nMaximum frame rate          : 25.000 fps\r\nColor space                 : YUV\r\nChroma subsampling          : 4:2:0\r\nBit depth                   : 8 bits\r\nScan type                   : Progressive\r\nBits/(Pixel*Frame)          : 0.116\r\nStream size                 : 235 MiB (83%)\r\nColor range                 : Limited\r\nColor primaries             : BT.601 NTSC\r\nTransfer characteristics    : BT.709\r\nMatrix coefficients         : BT.601\r\n\r\nAudio\r\nID                          : 2\r\nFormat                      : AAC\r\nFormat/Info                 : Advanced Audio Codec\r\nFormat profile              : LC\r\nCodec ID                    : 40\r\nDuration                    : 50mn 10s\r\nBit rate mode               : Constant\r\nBit rate                    : 128 Kbps\r\nChannel(s)                  : 2 channels\r\nChannel positions           : Front: L R\r\nSampling rate               : 48.0 KHz\r\nCompression mode            : Lossy\r\nStream size                 : 45.9 MiB (16%)","torrent":{"xt":"urn:btih:15768ed806e493253a46127e94d218a25cb5df54","amp;dn":"Sta+dixtya+tou+pepromenou+ep+71+DVB-T+by+Ari+Gr+Subs","amp;tr":["udp%3A%2F%2Ftracker.leechers-paradise.org%3A6969","udp%3A%2F%2Fzer0day.ch%3A1337","udp%3A%2F%2Fopen.demonii.com%3A1337","udp%3A%2F%2Ftracker.coppersurfer.tk%3A6969","udp%3A%2F%2Fexodus.desync.com%3A6969"],"infoHash":"15768ed806e493253a46127e94d218a25cb5df54","infoHashBuffer":{"type":"Buffer","data":[21,118,142,216,6,228,147,37,58,70,18,126,148,210,24,162,92,181,223,84]},"announce":[],"urlList":[]}}